<?xml version="1.0" standalone="no"?>
<!DOCTYPE svg PUBLIC "-//W3C//DTD SVG 20010904//EN"
 "http://www.w3.org/TR/2001/REC-SVG-20010904/DTD/svg10.dtd">
<svg version="1.0" xmlns="http://www.w3.org/2000/svg"
 width="512.000000pt" height="512.000000pt" viewBox="0 0 512.000000 512.000000"
 preserveAspectRatio="xMidYMid meet">
<metadata>
Created by potrace 1.14, written by Peter Selinger 2001-2017
</metadata>
<g transform="translate(0.000000,512.000000) scale(0.100000,-0.100000)"
fill="#000000" stroke="none">
<path d="M1609 2910 c-91 -16 -153 -65 -195 -155 -20 -46 -24 -69 -24 -153 0
-120 23 -191 79 -248 57 -58 111 -78 211 -78 113 0 173 29 226 109 26 38 47
128 42 180 l-3 40 -132 3 -133 3 0 -41 0 -40 80 0 c78 0 80 -1 80 -24 0 -43
-18 -75 -61 -106 -35 -25 -51 -30 -98 -30 -60 0 -113 24 -141 64 -76 106 -59
288 32 357 28 20 44 24 103 24 79 0 111 -16 142 -72 16 -31 21 -33 71 -33 l54
0 -7 32 c-7 31 -34 75 -65 107 -32 33 -70 51 -132 61 -69 11 -64 11 -129 0z"/>
<path d="M2125 2734 c-40 -21 -64 -43 -81 -76 -25 -48 -19 -58 34 -58 41 0 51
4 62 24 13 26 37 36 87 36 39 0 73 -33 73 -70 0 -27 -1 -27 -84 -33 -91 -6
-153 -30 -180 -69 -10 -14 -16 -44 -16 -80 0 -54 3 -61 36 -93 34 -34 39 -35
110 -35 43 0 74 4 74 10 0 6 6 10 14 10 7 0 20 7 27 16 12 15 14 14 19 -7 5
-21 13 -24 53 -27 l47 -3 0 186 c0 213 -5 230 -84 266 -51 23 -149 25 -191 3z
m173 -280 c6 -62 -97 -117 -153 -80 -28 19 -33 56 -10 80 8 8 37 18 63 21 26
3 54 8 62 9 27 6 35 0 38 -30z"/>
<path d="M2637 2730 c-30 -24 -37 -25 -37 -5 0 11 -12 15 -50 15 l-50 0 0
-230 0 -230 50 0 50 0 0 148 c0 129 2 151 20 180 21 34 59 55 94 50 18 -3 21
3 24 45 l3 47 -39 0 c-24 0 -49 -8 -65 -20z"/>
<path d="M2879 2730 c-82 -43 -119 -111 -120 -220 -1 -100 43 -181 117 -216
46 -22 151 -23 195 -2 81 39 119 110 119 223 0 79 -19 134 -60 175 -60 60
-178 78 -251 40z m166 -93 c60 -60 58 -195 -4 -251 -33 -30 -105 -26 -138 6
-29 30 -44 94 -36 153 6 44 39 102 63 109 29 9 99 -2 115 -17z"/>
<path d="M3379 2732 c-49 -23 -67 -40 -97 -87 -22 -35 -26 -52 -26 -125 -2
-178 75 -251 255 -242 40 2 129 56 129 78 0 8 4 14 8 14 12 0 42 101 42 141 0
50 -26 127 -55 166 -52 67 -175 94 -256 55z m161 -100 c47 -48 53 -178 10
-230 -35 -43 -114 -50 -150 -14 -64 65 -61 199 7 252 39 31 98 27 133 -8z"/>
</g>
</svg>
